<mxfile host="app.diagrams.net" modified="2023-05-03T02:24:52.059Z" agent="Mozilla/5.0 (Windows NT 10.0; Win64; x64) AppleWebKit/537.36 (KHTML, like Gecko) Chrome/112.0.0.0 Safari/537.36" etag="U5FN6mDWmzU8O9MFrI_8" version="21.2.6" type="device">
  <diagram id="TwlPvriCnIXcmnlsODP2" name="Page-1">
    <mxGraphModel dx="1916" dy="1276" grid="0" gridSize="10" guides="1" tooltips="1" connect="1" arrows="1" fold="1" page="1" pageScale="1" pageWidth="10000" pageHeight="10000" background="#ffffff" math="0" shadow="0">
      <root>
        <mxCell id="0" />
        <mxCell id="1" parent="0" />
        <mxCell id="JWryAIk7dfxH5tfOtyPe-1" value="&lt;p style=&quot;margin: 4px 0px 0px; text-align: center; font-size: 14px;&quot;&gt;&lt;b style=&quot;background-color: initial; border-color: var(--border-color); font-size: 14px;&quot;&gt;ClassicalUI&amp;nbsp;&lt;/b&gt;&lt;/p&gt;&lt;p style=&quot;margin: 4px 0px 0px; text-align: center; font-size: 14px;&quot;&gt;&lt;b style=&quot;background-color: initial; border-color: var(--border-color); font-size: 14px;&quot;&gt;extends React.Component&lt;/b&gt;&lt;br style=&quot;font-size: 14px;&quot;&gt;&lt;/p&gt;&lt;hr style=&quot;font-size: 14px;&quot;&gt;&lt;p style=&quot;margin: 0px 0px 0px 4px; font-size: 14px;&quot;&gt;+ checkmateIndex: number&lt;/p&gt;&lt;p style=&quot;margin: 0px 0px 0px 4px; font-size: 14px;&quot;&gt;+ numCheckmates: number&lt;/p&gt;&lt;p style=&quot;margin: 0px 0px 0px 4px; font-size: 14px;&quot;&gt;+ checkmates: object[]&lt;/p&gt;&lt;p style=&quot;margin: 0px 0px 0px 4px; font-size: 14px;&quot;&gt;+ position: string&lt;/p&gt;&lt;p style=&quot;margin: 0px 0px 0px 4px; font-size: 14px;&quot;&gt;+ botMoves: string[]&lt;/p&gt;&lt;p style=&quot;margin: 0px 0px 0px 4px; font-size: 14px;&quot;&gt;+ userMoves: string[]&lt;/p&gt;&lt;p style=&quot;margin: 0px 0px 0px 4px; font-size: 14px;&quot;&gt;+ userSequenceIndex: number&lt;/p&gt;&lt;p style=&quot;margin: 0px 0px 0px 4px; font-size: 14px;&quot;&gt;+ moves: string[]&lt;/p&gt;&lt;p style=&quot;margin: 0px 0px 0px 4px; font-size: 14px;&quot;&gt;+ splitMoves: string[]&lt;/p&gt;&lt;p style=&quot;margin: 0px 0px 0px 4px; font-size: 14px;&quot;&gt;+ ratings: number&lt;/p&gt;&lt;p style=&quot;margin: 0px 0px 0px 4px; font-size: 14px;&quot;&gt;+ indexes: number&lt;/p&gt;&lt;p style=&quot;margin: 0px 0px 0px 4px; font-size: 14px;&quot;&gt;+ solutionIndex: number&lt;/p&gt;&lt;p style=&quot;margin: 0px 0px 0px 4px; font-size: 14px;&quot;&gt;+ color: string&lt;/p&gt;&lt;p style=&quot;margin: 0px 0px 0px 4px; font-size: 14px;&quot;&gt;+ from: string&lt;/p&gt;&lt;p style=&quot;margin: 0px 0px 0px 4px; font-size: 14px;&quot;&gt;+ to: string[]&lt;/p&gt;&lt;p style=&quot;margin: 0px 0px 0px 4px; font-size: 14px;&quot;&gt;+ validMoves: string[]&lt;/p&gt;&lt;p style=&quot;margin: 0px 0px 0px 4px; font-size: 14px;&quot;&gt;+ lives: number&lt;/p&gt;&lt;p style=&quot;margin: 0px 0px 0px 4px; font-size: 14px;&quot;&gt;&lt;span style=&quot;background-color: initial;&quot;&gt;+ score: number&lt;/span&gt;&lt;/p&gt;&lt;p style=&quot;margin: 0px 0px 0px 4px; font-size: 14px;&quot;&gt;+ scoreCounter: number&lt;/p&gt;&lt;hr style=&quot;font-size: 14px;&quot;&gt;&lt;p style=&quot;margin: 0px 0px 0px 4px; font-size: 14px;&quot;&gt;+ componentDidMount(): void&lt;/p&gt;&lt;p style=&quot;margin: 0px 0px 0px 4px; font-size: 14px;&quot;&gt;+ getIndex(rating: number): void&lt;/p&gt;&lt;p style=&quot;margin: 0px 0px 0px 4px; font-size: 14px;&quot;&gt;+ handleBoardState(): void&lt;/p&gt;&lt;p style=&quot;margin: 0px 0px 0px 4px; font-size: 14px;&quot;&gt;+&amp;nbsp;handleUserMoves&lt;/p&gt;&lt;p style=&quot;margin: 0px 0px 0px 4px; font-size: 14px;&quot;&gt;&lt;span style=&quot;background-color: initial; font-size: 14px;&quot;&gt;&lt;span style=&quot;white-space: pre;&quot;&gt; &lt;/span&gt;(sourceSquare: string,&lt;/span&gt;&lt;/p&gt;&lt;span style=&quot;font-size: 14px;&quot;&gt; &lt;/span&gt;&lt;span style=&quot;font-size: 14px;&quot;&gt; &lt;/span&gt;&lt;span style=&quot;font-size: 14px;&quot;&gt; &lt;/span&gt;&lt;blockquote style=&quot;margin: 0 0 0 40px; border: none; padding: 0px;&quot;&gt;&lt;span style=&quot;white-space: pre; font-size: 14px;&quot;&gt; &lt;/span&gt;targetSquare: string): void&lt;/blockquote&gt;&lt;p style=&quot;margin: 0px 0px 0px 4px; font-size: 14px;&quot;&gt;&lt;span style=&quot;background-color: initial; font-size: 14px;&quot;&gt;+ handleSubsequentMoves&lt;/span&gt;&lt;/p&gt;&lt;p style=&quot;margin: 0px 0px 0px 4px; font-size: 14px;&quot;&gt;&lt;span style=&quot;background-color: initial; font-size: 14px;&quot;&gt;&lt;span style=&quot;font-size: 14px;&quot;&gt; &lt;/span&gt;&lt;span style=&quot;font-size: 14px;&quot;&gt; &lt;/span&gt;&lt;span style=&quot;font-size: 14px;&quot;&gt; &lt;/span&gt;&lt;span style=&quot;white-space: pre; font-size: 14px;&quot;&gt; &lt;/span&gt;(currFen: string): void&lt;/span&gt;&lt;/p&gt;&lt;p style=&quot;margin: 0px 0px 0px 4px; font-size: 14px;&quot;&gt;&lt;span style=&quot;background-color: initial; font-size: 14px;&quot;&gt;+ handleSolutionButton():void&lt;/span&gt;&lt;/p&gt;&lt;p style=&quot;margin: 0px 0px 0px 4px; font-size: 14px;&quot;&gt;&lt;span style=&quot;background-color: initial; font-size: 14px;&quot;&gt;+ handlePieceClick&lt;/span&gt;&lt;/p&gt;&lt;blockquote style=&quot;margin: 0px 0px 0px 40px; border: none; padding: 0px; font-size: 14px;&quot;&gt;&lt;p style=&quot;margin: 0px 0px 0px 4px; font-size: 14px;&quot;&gt;&lt;span style=&quot;background-color: initial; font-size: 14px;&quot;&gt;(sourceSquare: string): void&lt;/span&gt;&lt;/p&gt;&lt;/blockquote&gt;&lt;p style=&quot;border-color: var(--border-color); margin: 0px 0px 0px 4px; font-size: 14px;&quot;&gt;+ handleSquareClick&lt;/p&gt;&lt;p style=&quot;border-color: var(--border-color); margin: 0px 0px 0px 4px; font-size: 14px;&quot;&gt;&lt;span style=&quot;border-color: var(--border-color); background-color: initial; font-size: 14px;&quot;&gt;&lt;span style=&quot;border-color: var(--border-color); font-size: 14px;&quot;&gt; &lt;/span&gt;&lt;span style=&quot;white-space: pre; font-size: 14px;&quot;&gt; &lt;/span&gt;(sourceSquare: string): void&lt;/span&gt;&lt;/p&gt;&lt;p style=&quot;border-color: var(--border-color); margin: 0px 0px 0px 4px; font-size: 14px;&quot;&gt;&lt;span style=&quot;border-color: var(--border-color); background-color: initial; font-size: 14px;&quot;&gt;+ handleStartButton(): void&lt;/span&gt;&lt;/p&gt;&lt;p style=&quot;border-color: var(--border-color); margin: 0px 0px 0px 4px; font-size: 14px;&quot;&gt;&lt;span style=&quot;border-color: var(--border-color); background-color: initial; font-size: 14px;&quot;&gt;+ sendScoreToDatabase(): void&lt;/span&gt;&lt;/p&gt;&lt;p style=&quot;margin: 0px 0px 0px 4px; font-size: 14px;&quot;&gt;+ render(): JSX&lt;/p&gt;" style="verticalAlign=top;align=left;overflow=fill;fontSize=14;fontFamily=Helvetica;html=1;rounded=0;" parent="1" vertex="1">
          <mxGeometry x="1690" y="610" width="250" height="670" as="geometry" />
        </mxCell>
        <mxCell id="JWryAIk7dfxH5tfOtyPe-3" value="&lt;p style=&quot;margin: 4px 0px 0px; text-align: center; font-size: 14px;&quot;&gt;&lt;b style=&quot;background-color: initial; border-color: var(--border-color); font-size: 14px;&quot;&gt;BulletUI&amp;nbsp;&lt;/b&gt;&lt;/p&gt;&lt;p style=&quot;margin: 4px 0px 0px; text-align: center; font-size: 14px;&quot;&gt;&lt;b style=&quot;background-color: initial; border-color: var(--border-color); font-size: 14px;&quot;&gt;extends React.Component&lt;/b&gt;&lt;br style=&quot;font-size: 14px;&quot;&gt;&lt;/p&gt;&lt;hr style=&quot;font-size: 14px;&quot;&gt;&lt;p style=&quot;border-color: var(--border-color); margin: 0px 0px 0px 4px;&quot;&gt;+ checkmateIndex: number&lt;/p&gt;&lt;p style=&quot;border-color: var(--border-color); margin: 0px 0px 0px 4px;&quot;&gt;+ numCheckmates: number&lt;/p&gt;&lt;p style=&quot;border-color: var(--border-color); margin: 0px 0px 0px 4px;&quot;&gt;+ checkmates: object[]&lt;/p&gt;&lt;p style=&quot;border-color: var(--border-color); margin: 0px 0px 0px 4px;&quot;&gt;+ position: string&lt;/p&gt;&lt;p style=&quot;border-color: var(--border-color); margin: 0px 0px 0px 4px;&quot;&gt;+ botMoves: string[]&lt;/p&gt;&lt;p style=&quot;border-color: var(--border-color); margin: 0px 0px 0px 4px;&quot;&gt;+ userMoves: string[]&lt;/p&gt;&lt;p style=&quot;border-color: var(--border-color); margin: 0px 0px 0px 4px;&quot;&gt;+ userSequenceIndex: number&lt;/p&gt;&lt;p style=&quot;border-color: var(--border-color); margin: 0px 0px 0px 4px;&quot;&gt;+ moves: string[]&lt;/p&gt;&lt;p style=&quot;border-color: var(--border-color); margin: 0px 0px 0px 4px;&quot;&gt;+ splitMoves: string[]&lt;/p&gt;&lt;p style=&quot;border-color: var(--border-color); margin: 0px 0px 0px 4px;&quot;&gt;+ ratings: number&lt;/p&gt;&lt;p style=&quot;border-color: var(--border-color); margin: 0px 0px 0px 4px;&quot;&gt;+ indexes: number&lt;/p&gt;&lt;p style=&quot;border-color: var(--border-color); margin: 0px 0px 0px 4px;&quot;&gt;+ solutionIndex: number&lt;/p&gt;&lt;p style=&quot;border-color: var(--border-color); margin: 0px 0px 0px 4px;&quot;&gt;+ color: string&lt;/p&gt;&lt;p style=&quot;border-color: var(--border-color); margin: 0px 0px 0px 4px;&quot;&gt;+ from: string&lt;/p&gt;&lt;p style=&quot;border-color: var(--border-color); margin: 0px 0px 0px 4px;&quot;&gt;+ to: string[]&lt;/p&gt;&lt;p style=&quot;border-color: var(--border-color); margin: 0px 0px 0px 4px;&quot;&gt;+ validMoves: string[]&lt;/p&gt;&lt;p style=&quot;border-color: var(--border-color); margin: 0px 0px 0px 4px;&quot;&gt;+ lives: number&lt;/p&gt;&lt;p style=&quot;border-color: var(--border-color); margin: 0px 0px 0px 4px;&quot;&gt;+ score: number&lt;/p&gt;&lt;p style=&quot;border-color: var(--border-color); margin: 0px 0px 0px 4px;&quot;&gt;+ scoreCounter: number&lt;/p&gt;&lt;p style=&quot;margin: 0px 0px 0px 4px; font-size: 14px;&quot;&gt;+ minutes: number&lt;/p&gt;&lt;p style=&quot;margin: 0px 0px 0px 4px; font-size: 14px;&quot;&gt;+ seconds: number&lt;/p&gt;&lt;p style=&quot;margin: 0px 0px 0px 4px; font-size: 14px;&quot;&gt;+ timer: number&lt;/p&gt;&lt;p style=&quot;margin: 0px 0px 0px 4px; font-size: 14px;&quot;&gt;+ overallTime: number&lt;br&gt;&lt;/p&gt;&lt;hr style=&quot;font-size: 14px;&quot;&gt;&lt;p style=&quot;margin: 0px 0px 0px 4px; font-size: 14px;&quot;&gt;+ componentDidMount(): void&lt;/p&gt;&lt;p style=&quot;margin: 0px 0px 0px 4px; font-size: 14px;&quot;&gt;+ getIndex(rating: number): void&lt;/p&gt;&lt;p style=&quot;margin: 0px 0px 0px 4px; font-size: 14px;&quot;&gt;+ handleBoardState(): void&lt;/p&gt;&lt;p style=&quot;margin: 0px 0px 0px 4px; font-size: 14px;&quot;&gt;+&amp;nbsp;handleUserMoves&lt;/p&gt;&lt;p style=&quot;margin: 0px 0px 0px 4px; font-size: 14px;&quot;&gt;&lt;span style=&quot;background-color: initial; font-size: 14px;&quot;&gt;&lt;span style=&quot;&quot;&gt;&lt;/span&gt;&amp;nbsp;(sourceSquare: string,&lt;/span&gt;&lt;/p&gt;&lt;span style=&quot;font-size: 14px;&quot;&gt; &lt;/span&gt;&lt;span style=&quot;font-size: 14px;&quot;&gt; &lt;/span&gt;&lt;span style=&quot;font-size: 14px;&quot;&gt; &lt;/span&gt;&lt;span style=&quot;font-size: 14px;&quot;&gt; &lt;span style=&quot;&quot;&gt; &lt;/span&gt;&lt;/span&gt;&lt;span style=&quot;white-space: pre;&quot;&gt;	&lt;/span&gt;targetSquare: string): void&lt;p style=&quot;margin: 0px 0px 0px 4px; font-size: 14px;&quot;&gt;&lt;span style=&quot;background-color: initial; font-size: 14px;&quot;&gt;+ handleSubsequentMoves&lt;/span&gt;&lt;/p&gt;&lt;p style=&quot;margin: 0px 0px 0px 4px; font-size: 14px;&quot;&gt;&lt;span style=&quot;background-color: initial;&quot;&gt;&amp;nbsp;(currFen: string): void&lt;/span&gt;&lt;/p&gt;&lt;p style=&quot;margin: 0px 0px 0px 4px; font-size: 14px;&quot;&gt;&lt;span style=&quot;background-color: initial; font-size: 14px;&quot;&gt;+ handleSolutionButton():void&lt;/span&gt;&lt;/p&gt;&lt;p style=&quot;margin: 0px 0px 0px 4px; font-size: 14px;&quot;&gt;&lt;span style=&quot;background-color: initial; font-size: 14px;&quot;&gt;+ timer(): void&lt;/span&gt;&lt;/p&gt;&lt;p style=&quot;margin: 0px 0px 0px 4px; font-size: 14px;&quot;&gt;+ overallTimer(): void&lt;/p&gt;&lt;p style=&quot;margin: 0px 0px 0px 4px; font-size: 14px;&quot;&gt;&lt;span style=&quot;background-color: initial; font-size: 14px;&quot;&gt;+ handlePieceClick&lt;/span&gt;&lt;/p&gt;&lt;p style=&quot;margin: 0px 0px 0px 4px; font-size: 14px;&quot;&gt;&lt;span style=&quot;background-color: initial;&quot;&gt;&amp;nbsp;(sourceSquare: string): void&lt;/span&gt;&lt;/p&gt;&lt;p style=&quot;border-color: var(--border-color); margin: 0px 0px 0px 4px; font-size: 14px;&quot;&gt;+ handleSquareClick&lt;/p&gt;&lt;p style=&quot;border-color: var(--border-color); margin: 0px 0px 0px 4px; font-size: 14px;&quot;&gt;&lt;span style=&quot;border-color: var(--border-color); background-color: initial; font-size: 14px;&quot;&gt;&lt;span style=&quot;border-color: var(--border-color); font-size: 14px;&quot;&gt;&lt;/span&gt;&lt;span style=&quot;font-size: 14px;&quot;&gt;&lt;/span&gt;&amp;nbsp;(sourceSquare: string): void&lt;/span&gt;&lt;/p&gt;&lt;p style=&quot;border-color: var(--border-color); margin: 0px 0px 0px 4px; font-size: 14px;&quot;&gt;&lt;span style=&quot;border-color: var(--border-color); background-color: initial; font-size: 14px;&quot;&gt;+ handleStartButton(): void&lt;/span&gt;&lt;/p&gt;&lt;p style=&quot;border-color: var(--border-color); margin: 0px 0px 0px 4px; font-size: 14px;&quot;&gt;&lt;span style=&quot;border-color: var(--border-color); background-color: initial; font-size: 14px;&quot;&gt;+ sendScoreToDatabase(): void&lt;/span&gt;&lt;/p&gt;&lt;p style=&quot;margin: 0px 0px 0px 4px; font-size: 14px;&quot;&gt;+ render(): JSX&lt;/p&gt;" style="verticalAlign=top;align=left;overflow=fill;fontSize=14;fontFamily=Helvetica;html=1;rounded=0;" parent="1" vertex="1">
          <mxGeometry x="1960" y="610" width="250" height="770" as="geometry" />
        </mxCell>
        <mxCell id="JWryAIk7dfxH5tfOtyPe-4" value="&lt;p style=&quot;margin: 4px 0px 0px; text-align: center; font-size: 14px;&quot;&gt;&lt;b style=&quot;font-size: 14px;&quot;&gt;CreateUI&lt;/b&gt;&lt;/p&gt;&lt;p style=&quot;margin: 4px 0px 0px; text-align: center; font-size: 14px;&quot;&gt;&lt;b style=&quot;border-color: var(--border-color); font-size: 14px;&quot;&gt;extends React.Component&lt;/b&gt;&lt;b style=&quot;font-size: 14px;&quot;&gt;&lt;br style=&quot;font-size: 14px;&quot;&gt;&lt;/b&gt;&lt;/p&gt;&lt;hr style=&quot;font-size: 14px;&quot;&gt;&lt;p style=&quot;margin: 0px 0px 0px 4px; font-size: 14px;&quot;&gt;+ position: string&lt;/p&gt;&lt;p style=&quot;margin: 0px 0px 0px 4px; font-size: 14px;&quot;&gt;+ confirmedPosition: string&lt;/p&gt;&lt;p style=&quot;margin: 0px 0px 0px 4px; font-size: 14px;&quot;&gt;+ isSparePieces: bool&lt;/p&gt;&lt;p style=&quot;margin: 0px 0px 0px 4px; font-size: 14px;&quot;&gt;+ isDragging: bool&lt;/p&gt;&lt;p style=&quot;margin: 0px 0px 0px 4px; font-size: 14px;&quot;&gt;+ isPositionSetup: bool&lt;/p&gt;&lt;p style=&quot;margin: 0px 0px 0px 4px; font-size: 14px;&quot;&gt;+ isDeletePieces: bool&lt;/p&gt;&lt;p style=&quot;margin: 0px 0px 0px 4px; font-size: 14px;&quot;&gt;+ isCheckmate: bool&lt;/p&gt;&lt;p style=&quot;margin: 0px 0px 0px 4px; font-size: 14px;&quot;&gt;+ placement: string[]&lt;/p&gt;&lt;p style=&quot;margin: 0px 0px 0px 4px; font-size: 14px;&quot;&gt;+ placementIndex: number&lt;/p&gt;&lt;p style=&quot;margin: 0px 0px 0px 4px; font-size: 14px;&quot;&gt;+ offBoard: string&lt;/p&gt;&lt;p style=&quot;margin: 0px 0px 0px 4px; font-size: 14px;&quot;&gt;+ showBackButton: bool&lt;/p&gt;&lt;p style=&quot;margin: 0px 0px 0px 4px; font-size: 14px;&quot;&gt;+ showMustBeCheckmate: bool&lt;/p&gt;&lt;p style=&quot;margin: 0px 0px 0px 4px; font-size: 14px;&quot;&gt;+ showTutorialButton: bool&lt;/p&gt;&lt;p style=&quot;margin: 0px 0px 0px 4px; font-size: 14px;&quot;&gt;+ isConfirmedSolution: bool&lt;/p&gt;&lt;p style=&quot;margin: 0px 0px 0px 4px; font-size: 14px;&quot;&gt;+ isMoved: bool&lt;/p&gt;&lt;p style=&quot;margin: 0px 0px 0px 4px; font-size: 14px;&quot;&gt;+ puzzleId: number&lt;/p&gt;&lt;p style=&quot;margin: 0px 0px 0px 4px; font-size: 14px;&quot;&gt;+ username: string&lt;/p&gt;&lt;p style=&quot;margin: 0px 0px 0px 4px; font-size: 14px;&quot;&gt;+ fen: string&lt;/p&gt;&lt;p style=&quot;margin: 0px 0px 0px 4px; font-size: 14px;&quot;&gt;+ moves: string[]&lt;/p&gt;&lt;p style=&quot;margin: 0px 0px 0px 4px; font-size: 14px;&quot;&gt;+ date: string&lt;/p&gt;&lt;p style=&quot;margin: 0px 0px 0px 4px; font-size: 14px;&quot;&gt;+ puzzles: object[]&lt;/p&gt;&lt;hr style=&quot;font-size: 14px;&quot;&gt;&lt;p style=&quot;margin: 0px 0px 0px 4px; font-size: 14px;&quot;&gt;+ componentDidMount(): void&lt;/p&gt;&lt;p style=&quot;margin: 0px 0px 0px 4px; font-size: 14px;&quot;&gt;+ retrievePuzzlesFromDatabase(): void&lt;/p&gt;&lt;p style=&quot;border-color: var(--border-color); margin: 0px 0px 0px 4px; font-size: 14px;&quot;&gt;+&amp;nbsp;sendPuzzleToDatabase&lt;span style=&quot;background-color: initial; font-size: 14px;&quot;&gt;(): void&lt;/span&gt;&lt;/p&gt;&lt;p style=&quot;border-color: var(--border-color); margin: 0px 0px 0px 4px; font-size: 14px;&quot;&gt;+&amp;nbsp;handleSquareClick&lt;/p&gt;&lt;span style=&quot;white-space: pre; font-size: 14px;&quot;&gt;  &lt;/span&gt;(sourceSquare: string&lt;span style=&quot;background-color: initial; font-size: 14px;&quot;&gt;): void&lt;/span&gt;&lt;br style=&quot;font-size: 14px;&quot;&gt;&lt;p style=&quot;border-color: var(--border-color); margin: 0px 0px 0px 4px; font-size: 14px;&quot;&gt;+&amp;nbsp;handleDragStart&lt;span style=&quot;background-color: initial; font-size: 14px;&quot;&gt;(): void&lt;/span&gt;&lt;/p&gt;&lt;p style=&quot;border-color: var(--border-color); margin: 0px 0px 0px 4px; font-size: 14px;&quot;&gt;+&amp;nbsp;handleDragEnd&lt;span style=&quot;background-color: initial; font-size: 14px;&quot;&gt;(): void&lt;/span&gt;&lt;/p&gt;&lt;p style=&quot;border-color: var(--border-color); margin: 0px 0px 0px 4px; font-size: 14px;&quot;&gt;+&amp;nbsp;handleDrop&lt;/p&gt;&lt;p style=&quot;border-color: var(--border-color); margin: 0px 0px 0px 4px; font-size: 14px;&quot;&gt;&lt;span style=&quot;background-color: initial; font-size: 14px;&quot;&gt;&lt;span style=&quot;font-size: 14px;&quot;&gt; &lt;/span&gt;&lt;span style=&quot;white-space: pre; font-size: 14px;&quot;&gt; &lt;/span&gt;(sourceSquare: string,&amp;nbsp;&lt;/span&gt;&lt;/p&gt;&lt;p style=&quot;border-color: var(--border-color); margin: 0px 0px 0px 4px; font-size: 14px;&quot;&gt;&lt;span style=&quot;background-color: initial; font-size: 14px;&quot;&gt;&lt;span style=&quot;font-size: 14px;&quot;&gt; &lt;/span&gt;&lt;span style=&quot;font-size: 14px;&quot;&gt; &lt;/span&gt;&lt;span style=&quot;white-space: pre; font-size: 14px;&quot;&gt; &lt;/span&gt;&lt;span style=&quot;white-space: pre; font-size: 14px;&quot;&gt; &lt;/span&gt;targetSquare: string): void&lt;/span&gt;&lt;/p&gt;&lt;p style=&quot;border-color: var(--border-color); margin: 0px 0px 0px 4px; font-size: 14px;&quot;&gt;+&amp;nbsp;handleResetPosition&lt;span style=&quot;background-color: initial; font-size: 14px;&quot;&gt;(): void&lt;/span&gt;&lt;/p&gt;&lt;p style=&quot;border-color: var(--border-color); margin: 0px 0px 0px 4px; font-size: 14px;&quot;&gt;+&amp;nbsp;handleDragOverSquare&lt;/p&gt;&lt;p style=&quot;border-color: var(--border-color); margin: 0px 0px 0px 4px; font-size: 14px;&quot;&gt;&lt;span style=&quot;background-color: initial; font-size: 14px;&quot;&gt;&lt;span style=&quot;font-size: 14px;&quot;&gt; &lt;/span&gt;&lt;span style=&quot;white-space: pre; font-size: 14px;&quot;&gt; &lt;/span&gt;(sourceSquare: string): void&lt;/span&gt;&lt;/p&gt;&lt;p style=&quot;border-color: var(--border-color); margin: 0px 0px 0px 4px; font-size: 14px;&quot;&gt;+&amp;nbsp;handleBackButton&lt;span style=&quot;background-color: initial; font-size: 14px;&quot;&gt;(): void&lt;/span&gt;&lt;/p&gt;&lt;p style=&quot;border-color: var(--border-color); margin: 0px 0px 0px 4px; font-size: 14px;&quot;&gt;+&amp;nbsp;handleConfirmSolutionButton&lt;span style=&quot;background-color: initial; font-size: 14px;&quot;&gt;(): void&lt;/span&gt;&lt;/p&gt;&lt;p style=&quot;border-color: var(--border-color); margin: 0px 0px 0px 4px; font-size: 14px;&quot;&gt;+&amp;nbsp;handleDropOffBoard&lt;span style=&quot;background-color: initial; font-size: 14px;&quot;&gt;(): void&lt;/span&gt;&lt;/p&gt;&lt;p style=&quot;border-color: var(--border-color); margin: 0px 0px 0px 4px; font-size: 14px;&quot;&gt;+&amp;nbsp;handleStartTutorialButton&lt;span style=&quot;background-color: initial; font-size: 14px;&quot;&gt;(): void&lt;/span&gt;&lt;/p&gt;&lt;p style=&quot;border-color: var(--border-color); margin: 0px 0px 0px 4px; font-size: 14px;&quot;&gt;+&amp;nbsp;handleTutorial&lt;span style=&quot;background-color: initial; font-size: 14px;&quot;&gt;(): void&lt;/span&gt;&lt;/p&gt;&lt;p style=&quot;border-color: var(--border-color); margin: 0px 0px 0px 4px; font-size: 14px;&quot;&gt;+&amp;nbsp;handleOKButton&lt;span style=&quot;background-color: initial; font-size: 14px;&quot;&gt;(): void&lt;/span&gt;&lt;/p&gt;&lt;p style=&quot;margin: 0px 0px 0px 4px; font-size: 14px;&quot;&gt;+&amp;nbsp;handleMustBeCheckmate&lt;span style=&quot;background-color: initial; font-size: 14px;&quot;&gt;(): void&lt;/span&gt;&lt;/p&gt;&lt;p style=&quot;margin: 0px 0px 0px 4px; font-size: 14px;&quot;&gt;+ render(): JSX&lt;/p&gt;" style="verticalAlign=top;align=left;overflow=fill;fontSize=14;fontFamily=Helvetica;html=1;rounded=0;" parent="1" vertex="1">
          <mxGeometry x="2230" y="610" width="250" height="790" as="geometry" />
        </mxCell>
        <mxCell id="JWryAIk7dfxH5tfOtyPe-5" value="&lt;p style=&quot;margin: 4px 0px 0px; text-align: center; font-size: 14px;&quot;&gt;&lt;b style=&quot;background-color: initial; font-size: 14px;&quot;&gt;PlayUI&lt;/b&gt;&lt;/p&gt;&lt;p style=&quot;margin: 4px 0px 0px; text-align: center; font-size: 14px;&quot;&gt;&lt;b style=&quot;background-color: initial; font-size: 14px;&quot;&gt;extends React.Component&lt;/b&gt;&lt;br style=&quot;font-size: 14px;&quot;&gt;&lt;/p&gt;&lt;hr style=&quot;font-size: 14px;&quot;&gt;&lt;p style=&quot;margin: 0px 0px 0px 4px; font-size: 14px;&quot;&gt;+ puzzle: object[]&lt;/p&gt;&lt;p style=&quot;margin: 0px 0px 0px 4px; font-size: 14px;&quot;&gt;+ fen: string&lt;/p&gt;&lt;p style=&quot;margin: 0px 0px 0px 4px; font-size: 14px;&quot;&gt;+ moves: string[]&lt;/p&gt;&lt;p style=&quot;margin: 0px 0px 0px 4px; font-size: 14px;&quot;&gt;+ puzzleId: number&lt;/p&gt;&lt;p style=&quot;margin: 0px 0px 0px 4px; font-size: 14px;&quot;&gt;+ username: string&lt;/p&gt;&lt;p style=&quot;margin: 0px 0px 0px 4px; font-size: 14px;&quot;&gt;+ date: string&lt;/p&gt;&lt;p style=&quot;margin: 0px 0px 0px 4px; font-size: 14px;&quot;&gt;+ botMoveIndex: number&lt;/p&gt;&lt;p style=&quot;margin: 0px 0px 0px 4px; font-size: 14px;&quot;&gt;+ userMoveIndex: number&lt;/p&gt;&lt;p style=&quot;margin: 0px 0px 0px 4px; font-size: 14px;&quot;&gt;+ showStartButton: bool&lt;/p&gt;&lt;p style=&quot;margin: 0px 0px 0px 4px; font-size: 14px;&quot;&gt;+ showFailedPlayPuzzle: bool&lt;/p&gt;&lt;p style=&quot;margin: 0px 0px 0px 4px; font-size: 14px;&quot;&gt;+ showSuccessPlayPuzzle: bool&lt;/p&gt;&lt;hr style=&quot;font-size: 14px;&quot;&gt;&lt;p style=&quot;margin: 0px 0px 0px 4px; font-size: 14px;&quot;&gt;&lt;span style=&quot;background-color: initial; font-size: 14px;&quot;&gt;+ componentDidMount()&lt;/span&gt;&lt;/p&gt;&lt;p style=&quot;margin: 0px 0px 0px 4px; font-size: 14px;&quot;&gt;&lt;span style=&quot;background-color: initial; font-size: 14px;&quot;&gt;+ handleBotMoves(): void&lt;/span&gt;&lt;br style=&quot;font-size: 14px;&quot;&gt;&lt;/p&gt;&lt;p style=&quot;margin: 0px 0px 0px 4px; font-size: 14px;&quot;&gt;+&amp;nbsp;handleStartButton&lt;span style=&quot;background-color: initial; font-size: 14px;&quot;&gt;(): void&lt;/span&gt;&lt;/p&gt;&lt;p style=&quot;margin: 0px 0px 0px 4px; font-size: 14px;&quot;&gt;+&amp;nbsp;handleUserMoves&lt;/p&gt;&lt;p style=&quot;margin: 0px 0px 0px 4px; font-size: 14px;&quot;&gt;&lt;span style=&quot;background-color: initial; font-size: 14px;&quot;&gt;&lt;span style=&quot;white-space: pre; font-size: 14px;&quot;&gt; &lt;/span&gt;(sourceSquare: string,&amp;nbsp;&lt;/span&gt;&lt;/p&gt;&lt;p style=&quot;margin: 0px 0px 0px 4px; font-size: 14px;&quot;&gt;&lt;span style=&quot;background-color: initial; font-size: 14px;&quot;&gt;&lt;span style=&quot;white-space: pre; font-size: 14px;&quot;&gt; &lt;/span&gt;&lt;span style=&quot;white-space: pre; font-size: 14px;&quot;&gt; &lt;/span&gt;targetSquare: string): void&lt;/span&gt;&lt;/p&gt;&lt;p style=&quot;margin: 0px 0px 0px 4px; font-size: 14px;&quot;&gt;&lt;span style=&quot;background-color: initial; font-size: 14px;&quot;&gt;+ render(): JSX&lt;/span&gt;&lt;br style=&quot;font-size: 14px;&quot;&gt;&lt;/p&gt;" style="verticalAlign=top;align=left;overflow=fill;fontSize=14;fontFamily=Helvetica;html=1;rounded=0;" parent="1" vertex="1">
          <mxGeometry x="2500" y="990" width="230" height="380" as="geometry" />
        </mxCell>
        <mxCell id="JWryAIk7dfxH5tfOtyPe-7" value="&lt;p style=&quot;margin: 4px 0px 0px; text-align: center; font-size: 14px;&quot;&gt;&lt;b style=&quot;font-size: 14px;&quot;&gt;CustomPuzzleUI&lt;/b&gt;&lt;/p&gt;&lt;p style=&quot;margin: 4px 0px 0px; text-align: center; font-size: 14px;&quot;&gt;&lt;b style=&quot;border-color: var(--border-color); font-size: 14px;&quot;&gt;extends React.Component&lt;/b&gt;&lt;b style=&quot;font-size: 14px;&quot;&gt;&lt;br style=&quot;font-size: 14px;&quot;&gt;&lt;/b&gt;&lt;/p&gt;&lt;hr style=&quot;font-size: 14px;&quot;&gt;&lt;p style=&quot;margin: 0px 0px 0px 4px; font-size: 14px;&quot;&gt;+ render(): JSX&lt;br style=&quot;font-size: 14px;&quot;&gt;&lt;/p&gt;" style="verticalAlign=top;align=left;overflow=fill;fontSize=14;fontFamily=Helvetica;html=1;rounded=0;" parent="1" vertex="1">
          <mxGeometry x="2420" y="490" width="180" height="80" as="geometry" />
        </mxCell>
        <mxCell id="JWryAIk7dfxH5tfOtyPe-10" value="&lt;p style=&quot;margin: 4px 0px 0px; text-align: center; font-size: 14px;&quot;&gt;&lt;b style=&quot;background-color: initial; border-color: var(--border-color); font-size: 14px;&quot;&gt;GameModeUI&lt;/b&gt;&lt;/p&gt;&lt;p style=&quot;margin: 4px 0px 0px; text-align: center; font-size: 14px;&quot;&gt;&lt;b style=&quot;background-color: initial; border-color: var(--border-color); font-size: 14px;&quot;&gt;extends React.Component&lt;/b&gt;&lt;br style=&quot;font-size: 14px;&quot;&gt;&lt;/p&gt;&lt;hr style=&quot;font-size: 14px;&quot;&gt;&lt;p style=&quot;margin: 0px 0px 0px 4px; font-size: 14px;&quot;&gt;&lt;/p&gt;&lt;p style=&quot;margin: 0px 0px 0px 4px; font-size: 14px;&quot;&gt;+ render(): JSX&lt;br style=&quot;font-size: 14px;&quot;&gt;&lt;/p&gt;" style="verticalAlign=top;align=left;overflow=fill;fontSize=14;fontFamily=Helvetica;html=1;rounded=0;" parent="1" vertex="1">
          <mxGeometry x="1860" y="480" width="180" height="80" as="geometry" />
        </mxCell>
        <mxCell id="JWryAIk7dfxH5tfOtyPe-13" value="&lt;p style=&quot;margin: 4px 0px 0px; text-align: center; font-size: 14px;&quot;&gt;&lt;b style=&quot;font-size: 14px;&quot;&gt;&lt;font style=&quot;font-size: 14px;&quot;&gt;HelpTutorialMenuUI&lt;/font&gt;&lt;/b&gt;&lt;/p&gt;&lt;p style=&quot;margin: 4px 0px 0px; text-align: center; font-size: 14px;&quot;&gt;&lt;font style=&quot;font-size: 14px;&quot;&gt;&lt;b style=&quot;border-color: var(--border-color); font-size: 14px;&quot;&gt;extends React.Component&lt;/b&gt;&lt;b style=&quot;font-size: 14px;&quot;&gt;&lt;br style=&quot;font-size: 14px;&quot;&gt;&lt;/b&gt;&lt;/font&gt;&lt;/p&gt;&lt;hr style=&quot;font-size: 14px;&quot;&gt;&lt;p style=&quot;margin: 0px 0px 0px 4px; font-size: 14px;&quot;&gt;&lt;/p&gt;&lt;p style=&quot;margin: 0px 0px 0px 4px; font-size: 14px;&quot;&gt;&lt;font style=&quot;font-size: 14px;&quot;&gt;+ render(): JSX&lt;/font&gt;&lt;br style=&quot;font-size: 14px;&quot;&gt;&lt;/p&gt;" style="verticalAlign=top;align=left;overflow=fill;fontSize=14;fontFamily=Helvetica;html=1;rounded=0;" parent="1" vertex="1">
          <mxGeometry x="1830" y="330" width="190" height="80" as="geometry" />
        </mxCell>
        <mxCell id="JWryAIk7dfxH5tfOtyPe-14" value="&lt;p style=&quot;margin: 4px 0px 0px; text-align: center; font-size: 14px;&quot;&gt;&lt;b style=&quot;background-color: initial; font-size: 14px;&quot;&gt;Leaderboard&lt;/b&gt;&lt;/p&gt;&lt;p style=&quot;margin: 4px 0px 0px; text-align: center; font-size: 14px;&quot;&gt;&lt;b style=&quot;background-color: initial; font-size: 14px;&quot;&gt;extends React.Component&lt;/b&gt;&lt;br style=&quot;font-size: 14px;&quot;&gt;&lt;/p&gt;&lt;hr style=&quot;font-size: 14px;&quot;&gt;&lt;p style=&quot;margin: 0px 0px 0px 4px; font-size: 14px;&quot;&gt;+ numBulletSubmissions: number&lt;/p&gt;&lt;p style=&quot;margin: 0px 0px 0px 4px; font-size: 14px;&quot;&gt;+ bulletSubmissions: string[]&lt;/p&gt;&lt;p style=&quot;margin: 0px 0px 0px 4px; font-size: 14px;&quot;&gt;+ numClassicalSubmissions: number&lt;/p&gt;&lt;p style=&quot;margin: 0px 0px 0px 4px; font-size: 14px;&quot;&gt;+ classicalSubmissions: string[]&lt;/p&gt;&lt;p style=&quot;margin: 0px 0px 0px 4px; font-size: 14px;&quot;&gt;+ name: string&lt;/p&gt;&lt;p style=&quot;margin: 0px 0px 0px 4px; font-size: 14px;&quot;&gt;+ score: number&lt;/p&gt;&lt;p style=&quot;margin: 0px 0px 0px 4px; font-size: 14px;&quot;&gt;+ time: string&lt;/p&gt;&lt;p style=&quot;margin: 0px 0px 0px 4px; font-size: 14px;&quot;&gt;+ showRefreshPage: bool&lt;/p&gt;&lt;hr style=&quot;font-size: 14px;&quot;&gt;&lt;p style=&quot;margin: 0px 0px 0px 4px; font-size: 14px;&quot;&gt;&lt;span style=&quot;background-color: initial; font-size: 14px;&quot;&gt;+ componentDidMount()&lt;/span&gt;&lt;/p&gt;&lt;p style=&quot;margin: 0px 0px 0px 4px; font-size: 14px;&quot;&gt;&lt;span style=&quot;background-color: initial; font-size: 14px;&quot;&gt;+ getBulletScores(): void&lt;/span&gt;&lt;br style=&quot;font-size: 14px;&quot;&gt;&lt;/p&gt;&lt;p style=&quot;margin: 0px 0px 0px 4px; font-size: 14px;&quot;&gt;+ getClassicalScores&lt;span style=&quot;background-color: initial; font-size: 14px;&quot;&gt;(): void&lt;/span&gt;&lt;/p&gt;&lt;p style=&quot;margin: 0px 0px 0px 4px; font-size: 14px;&quot;&gt;+&amp;nbsp;addRowToBulletTable&lt;/p&gt;&lt;p style=&quot;margin: 0px 0px 0px 4px; font-size: 14px;&quot;&gt;&lt;span style=&quot;background-color: initial; font-size: 14px;&quot;&gt;&lt;span style=&quot;font-size: 14px;&quot;&gt; &lt;/span&gt;&lt;span style=&quot;font-size: 14px;&quot;&gt; &lt;/span&gt;&lt;span style=&quot;font-size: 14px;&quot;&gt; &lt;/span&gt;&lt;span style=&quot;font-size: 14px;&quot;&gt; &lt;/span&gt;&lt;span style=&quot;white-space: pre; font-size: 14px;&quot;&gt; &lt;/span&gt;(numBulletSubmissions: number&lt;/span&gt;&lt;span style=&quot;background-color: initial; font-size: 14px;&quot;&gt;): void&lt;/span&gt;&lt;/p&gt;&lt;p style=&quot;border-color: var(--border-color); margin: 0px 0px 0px 4px; font-size: 14px;&quot;&gt;+&amp;nbsp;addRowToClassicalTable&lt;/p&gt;&lt;p style=&quot;border-color: var(--border-color); margin: 0px 0px 0px 4px; font-size: 14px;&quot;&gt;&lt;span style=&quot;font-size: 14px;&quot;&gt; &lt;/span&gt;&lt;span style=&quot;font-size: 14px;&quot;&gt; &lt;/span&gt;&lt;span style=&quot;font-size: 14px;&quot;&gt; &lt;/span&gt;&lt;span style=&quot;font-size: 14px;&quot;&gt; &lt;/span&gt;&lt;span style=&quot;white-space: pre; font-size: 14px;&quot;&gt; &lt;/span&gt;(numClassicalSubmissions&lt;span style=&quot;background-color: initial; font-size: 14px;&quot;&gt;: number&lt;/span&gt;&lt;span style=&quot;background-color: initial; border-color: var(--border-color); font-size: 14px;&quot;&gt;&lt;/span&gt;&lt;span style=&quot;background-color: initial; border-color: var(--border-color); font-size: 14px;&quot;&gt;): void&lt;/span&gt;&lt;/p&gt;&lt;p style=&quot;border-color: var(--border-color); margin: 0px 0px 0px 4px; font-size: 14px;&quot;&gt;&lt;span style=&quot;background-color: initial; border-color: var(--border-color); font-size: 14px;&quot;&gt;+ classical(): void&lt;/span&gt;&lt;/p&gt;&lt;p style=&quot;border-color: var(--border-color); margin: 0px 0px 0px 4px; font-size: 14px;&quot;&gt;&lt;span style=&quot;background-color: initial; border-color: var(--border-color); font-size: 14px;&quot;&gt;+ bullet(): void&lt;br style=&quot;font-size: 14px;&quot;&gt;&lt;/span&gt;&lt;/p&gt;&lt;p style=&quot;border-color: var(--border-color); margin: 0px 0px 0px 4px; font-size: 14px;&quot;&gt;&lt;span style=&quot;background-color: initial; border-color: var(--border-color); font-size: 14px;&quot;&gt;+ handleRefreshPage(): void&lt;br style=&quot;font-size: 14px;&quot;&gt;&lt;/span&gt;&lt;/p&gt;&lt;p style=&quot;margin: 0px 0px 0px 4px; font-size: 14px;&quot;&gt;&lt;span style=&quot;background-color: initial; font-size: 14px;&quot;&gt;+ render(): JSX&lt;/span&gt;&lt;br style=&quot;font-size: 14px;&quot;&gt;&lt;/p&gt;" style="verticalAlign=top;align=left;overflow=fill;fontSize=14;fontFamily=Helvetica;html=1;rounded=0;" parent="1" vertex="1">
          <mxGeometry x="2750" y="360" width="300" height="400" as="geometry" />
        </mxCell>
        <mxCell id="iY_i58WbuWCP7w-2UXdW-1" value="&lt;p style=&quot;margin: 4px 0px 0px; text-align: center; font-size: 14px;&quot;&gt;&lt;b style=&quot;font-size: 14px;&quot;&gt;&lt;font style=&quot;font-size: 14px;&quot;&gt;LoginUI&lt;/font&gt;&lt;/b&gt;&lt;/p&gt;&lt;p style=&quot;margin: 4px 0px 0px; text-align: center; font-size: 14px;&quot;&gt;&lt;font style=&quot;font-size: 14px;&quot;&gt;&lt;b style=&quot;border-color: var(--border-color); font-size: 14px;&quot;&gt;extends React.Component&lt;/b&gt;&lt;b style=&quot;font-size: 14px;&quot;&gt;&lt;br style=&quot;font-size: 14px;&quot;&gt;&lt;/b&gt;&lt;/font&gt;&lt;/p&gt;&lt;hr style=&quot;font-size: 14px;&quot;&gt;&lt;p style=&quot;margin: 0px 0px 0px 4px; font-size: 14px;&quot;&gt;&lt;font style=&quot;font-size: 14px;&quot;&gt;+ render(): JSX&lt;/font&gt;&lt;br style=&quot;font-size: 14px;&quot;&gt;&lt;/p&gt;" style="verticalAlign=top;align=left;overflow=fill;fontSize=14;fontFamily=Helvetica;html=1;rounded=0;" parent="1" vertex="1">
          <mxGeometry x="2520" y="320" width="180" height="80" as="geometry" />
        </mxCell>
        <mxCell id="iY_i58WbuWCP7w-2UXdW-2" value="&lt;p style=&quot;margin: 4px 0px 0px; text-align: center; font-size: 14px;&quot;&gt;&lt;b style=&quot;font-size: 14px;&quot;&gt;&lt;font style=&quot;font-size: 14px;&quot;&gt;MainMenuUI&lt;/font&gt;&lt;/b&gt;&lt;/p&gt;&lt;p style=&quot;margin: 4px 0px 0px; text-align: center; font-size: 14px;&quot;&gt;&lt;font style=&quot;font-size: 14px;&quot;&gt;&lt;b style=&quot;border-color: var(--border-color); font-size: 14px;&quot;&gt;extends React.Component&lt;/b&gt;&lt;b style=&quot;font-size: 14px;&quot;&gt;&lt;br style=&quot;font-size: 14px;&quot;&gt;&lt;/b&gt;&lt;/font&gt;&lt;/p&gt;&lt;hr style=&quot;font-size: 14px;&quot;&gt;&lt;p style=&quot;margin: 0px 0px 0px 4px; font-size: 14px;&quot;&gt;&lt;font style=&quot;font-size: 14px;&quot;&gt;+ render(): JSX&lt;/font&gt;&lt;br style=&quot;font-size: 14px;&quot;&gt;&lt;/p&gt;" style="verticalAlign=top;align=left;overflow=fill;fontSize=14;fontFamily=Helvetica;html=1;rounded=0;" parent="1" vertex="1">
          <mxGeometry x="2200" y="280" width="180" height="80" as="geometry" />
        </mxCell>
        <mxCell id="iY_i58WbuWCP7w-2UXdW-4" value="&lt;p style=&quot;margin: 4px 0px 0px; text-align: center; font-size: 14px;&quot;&gt;&lt;b style=&quot;background-color: initial; border-color: var(--border-color); font-size: 14px;&quot;&gt;PlayPuzzleListUI&lt;/b&gt;&lt;/p&gt;&lt;p style=&quot;margin: 4px 0px 0px; text-align: center; font-size: 14px;&quot;&gt;&lt;b style=&quot;background-color: initial; border-color: var(--border-color); font-size: 14px;&quot;&gt;extends React.Component&lt;/b&gt;&lt;br style=&quot;font-size: 14px;&quot;&gt;&lt;/p&gt;&lt;hr style=&quot;font-size: 14px;&quot;&gt;&lt;p style=&quot;margin: 0px 0px 0px 4px; font-size: 14px;&quot;&gt;+&amp;nbsp;numPuzzles&lt;span style=&quot;background-color: initial; font-size: 14px;&quot;&gt;: number&lt;/span&gt;&lt;/p&gt;&lt;p style=&quot;margin: 0px 0px 0px 4px; font-size: 14px;&quot;&gt;+&amp;nbsp;puzzles&lt;span style=&quot;background-color: initial; font-size: 14px;&quot;&gt;: object[]&lt;/span&gt;&lt;/p&gt;&lt;p style=&quot;margin: 0px 0px 0px 4px; font-size: 14px;&quot;&gt;+&amp;nbsp;table&lt;span style=&quot;background-color: initial; font-size: 14px;&quot;&gt;: object[]&lt;/span&gt;&lt;/p&gt;&lt;p style=&quot;margin: 0px 0px 0px 4px; font-size: 14px;&quot;&gt;+&amp;nbsp;showRefreshPage&lt;span style=&quot;background-color: initial; font-size: 14px;&quot;&gt;: bool&lt;/span&gt;&lt;/p&gt;&lt;hr style=&quot;font-size: 14px;&quot;&gt;&lt;p style=&quot;margin: 0px 0px 0px 4px; font-size: 14px;&quot;&gt;+ componentDidMount(): void&lt;/p&gt;&lt;p style=&quot;margin: 0px 0px 0px 4px; font-size: 14px;&quot;&gt;+&amp;nbsp;handleRefreshPage&lt;span style=&quot;background-color: initial; font-size: 14px;&quot;&gt;(): void&lt;/span&gt;&lt;/p&gt;&lt;p style=&quot;margin: 0px 0px 0px 4px; font-size: 14px;&quot;&gt;+&amp;nbsp;addRowToTable&lt;/p&gt;&lt;p style=&quot;margin: 0px 0px 0px 4px; font-size: 14px;&quot;&gt;&lt;span style=&quot;background-color: initial; font-size: 14px;&quot;&gt;&lt;span style=&quot;font-size: 14px;&quot;&gt; &lt;/span&gt;&lt;span style=&quot;white-space: pre; font-size: 14px;&quot;&gt; &lt;/span&gt;(numPuzzles: number): void&lt;/span&gt;&lt;/p&gt;&lt;p style=&quot;margin: 0px 0px 0px 4px; font-size: 14px;&quot;&gt;&lt;span style=&quot;background-color: initial; font-size: 14px;&quot;&gt;+&amp;nbsp;&lt;/span&gt;handleChessboardClick&lt;/p&gt;&lt;p style=&quot;margin: 0px 0px 0px 4px; font-size: 14px;&quot;&gt;&lt;span style=&quot;white-space: pre; font-size: 14px;&quot;&gt; &lt;/span&gt;(puzzleId: string): void&lt;br style=&quot;font-size: 14px;&quot;&gt;&lt;/p&gt;&lt;p style=&quot;margin: 0px 0px 0px 4px; font-size: 14px;&quot;&gt;+ render(): JSX&lt;/p&gt;" style="verticalAlign=top;align=left;overflow=fill;fontSize=14;fontFamily=Helvetica;html=1;rounded=0;" parent="1" vertex="1">
          <mxGeometry x="2490" y="610" width="220" height="260" as="geometry" />
        </mxCell>
        <mxCell id="iY_i58WbuWCP7w-2UXdW-7" value="&lt;p style=&quot;margin: 4px 0px 0px; text-align: center; font-size: 14px;&quot;&gt;&lt;b style=&quot;font-size: 14px;&quot;&gt;&lt;font style=&quot;font-size: 14px;&quot;&gt;SettingsUI&lt;/font&gt;&lt;/b&gt;&lt;/p&gt;&lt;p style=&quot;margin: 4px 0px 0px; text-align: center; font-size: 14px;&quot;&gt;&lt;b style=&quot;font-size: 14px;&quot;&gt;&lt;font style=&quot;font-size: 14px;&quot;&gt;extends React.Component&lt;/font&gt;&lt;/b&gt;&lt;/p&gt;&lt;hr style=&quot;font-size: 14px;&quot;&gt;&lt;p style=&quot;margin: 0px 0px 0px 4px; font-size: 14px;&quot;&gt;&lt;font style=&quot;font-size: 14px;&quot;&gt;+ scores: number[]&lt;/font&gt;&lt;/p&gt;&lt;p style=&quot;margin: 0px 0px 0px 4px; font-size: 14px;&quot;&gt;&lt;font style=&quot;font-size: 14px;&quot;&gt;+ dates: string[]&amp;nbsp;&lt;br style=&quot;font-size: 14px;&quot;&gt;&lt;/font&gt;&lt;/p&gt;&lt;p style=&quot;margin: 0px 0px 0px 4px; font-size: 14px;&quot;&gt;&lt;font style=&quot;font-size: 14px;&quot;&gt;+ dots: string&lt;/font&gt;&lt;/p&gt;&lt;p style=&quot;margin: 0px 0px 0px 4px; font-size: 14px;&quot;&gt;&lt;font style=&quot;font-size: 14px;&quot;&gt;+ settings: string[]&lt;/font&gt;&lt;/p&gt;&lt;hr style=&quot;font-size: 14px;&quot;&gt;&lt;p style=&quot;margin: 0px 0px 0px 4px; font-size: 14px;&quot;&gt;&lt;span style=&quot;background-color: initial; font-size: 14px;&quot;&gt;&lt;font style=&quot;font-size: 14px;&quot;&gt;+ componentDidMount()&lt;/font&gt;&lt;/span&gt;&lt;/p&gt;&lt;p style=&quot;margin: 0px 0px 0px 4px; font-size: 14px;&quot;&gt;&lt;font style=&quot;font-size: 14px;&quot;&gt;&lt;span style=&quot;background-color: initial; font-size: 14px;&quot;&gt;+ viewProfile(): void&lt;/span&gt;&lt;br style=&quot;font-size: 14px;&quot;&gt;&lt;/font&gt;&lt;/p&gt;&lt;p style=&quot;margin: 0px 0px 0px 4px; font-size: 14px;&quot;&gt;&lt;font style=&quot;font-size: 14px;&quot;&gt;+ legalMoveDots(): void&lt;/font&gt;&lt;/p&gt;&lt;p style=&quot;margin: 0px 0px 0px 4px; font-size: 14px;&quot;&gt;&lt;font style=&quot;font-size: 14px;&quot;&gt;+ render(): JSX&lt;/font&gt;&lt;br style=&quot;font-size: 14px;&quot;&gt;&lt;/p&gt;" style="verticalAlign=top;align=left;overflow=fill;fontSize=14;fontFamily=Helvetica;html=1;rounded=0;" parent="1" vertex="1">
          <mxGeometry x="1590" y="330" width="210" height="210" as="geometry" />
        </mxCell>
        <mxCell id="iY_i58WbuWCP7w-2UXdW-9" value="&lt;p style=&quot;margin: 4px 0px 0px; text-align: center; font-size: 14px;&quot;&gt;&lt;b style=&quot;border-color: var(--border-color); font-size: 14px;&quot;&gt;Checkmate&lt;/b&gt;&lt;/p&gt;&lt;p style=&quot;margin: 4px 0px 0px; text-align: center; font-size: 14px;&quot;&gt;&lt;b style=&quot;border-color: var(--border-color); font-size: 14px;&quot;&gt;&lt;b style=&quot;border-color: var(--border-color); font-size: 14px;&quot;&gt;extends React.Component&lt;/b&gt;&lt;br style=&quot;font-size: 14px;&quot;&gt;&lt;/b&gt;&lt;/p&gt;&lt;hr style=&quot;font-size: 14px;&quot;&gt;&lt;p style=&quot;margin: 0px 0px 0px 4px; font-size: 14px;&quot;&gt;+ render(): JSX&lt;br style=&quot;font-size: 14px;&quot;&gt;&lt;/p&gt;" style="verticalAlign=top;align=left;overflow=fill;fontSize=14;fontFamily=Helvetica;html=1;rounded=0;" parent="1" vertex="1">
          <mxGeometry x="2120" y="400" width="200" height="80" as="geometry" />
        </mxCell>
        <mxCell id="iY_i58WbuWCP7w-2UXdW-10" value="&lt;font style=&quot;font-size: 14px;&quot;&gt;NOTE: JSX allows us to write HTML in React&lt;/font&gt;" style="shape=note;size=20;whiteSpace=wrap;html=1;fontFamily=Helvetica;fontSize=14;fontColor=default;rounded=0;" parent="1" vertex="1">
          <mxGeometry x="2390" y="310" width="110" height="90" as="geometry" />
        </mxCell>
        <mxCell id="iY_i58WbuWCP7w-2UXdW-38" value="&lt;b style=&quot;font-size: 14px;&quot;&gt;&lt;font style=&quot;font-size: 14px;&quot;&gt;index&lt;/font&gt;&lt;/b&gt;" style="html=1;fontFamily=Helvetica;fontSize=14;rounded=0;" parent="1" vertex="1">
          <mxGeometry x="2050" y="300" width="110" height="50" as="geometry" />
        </mxCell>
        <mxCell id="iY_i58WbuWCP7w-2UXdW-47" value="&lt;font style=&quot;font-size: 14px;&quot;&gt;Displays&lt;/font&gt;" style="endArrow=open;endSize=12;html=1;rounded=0;labelBackgroundColor=default;strokeColor=default;fontFamily=Helvetica;fontSize=14;fontColor=default;shape=connector;exitX=1;exitY=0.25;exitDx=0;exitDy=0;entryX=0.5;entryY=1;entryDx=0;entryDy=0;" parent="1" source="iY_i58WbuWCP7w-2UXdW-9" target="iY_i58WbuWCP7w-2UXdW-1" edge="1">
          <mxGeometry x="0.0022" width="160" relative="1" as="geometry">
            <mxPoint x="3070" y="385" as="sourcePoint" />
            <mxPoint x="3160" y="320" as="targetPoint" />
            <mxPoint as="offset" />
            <Array as="points">
              <mxPoint x="2470" y="420" />
              <mxPoint x="2610" y="420" />
            </Array>
          </mxGeometry>
        </mxCell>
        <mxCell id="iY_i58WbuWCP7w-2UXdW-48" value="&lt;font style=&quot;font-size: 14px;&quot;&gt;Displays&lt;/font&gt;" style="endArrow=open;endSize=12;html=1;rounded=0;labelBackgroundColor=default;strokeColor=default;fontFamily=Helvetica;fontSize=14;fontColor=default;shape=connector;exitX=1;exitY=0.5;exitDx=0;exitDy=0;entryX=0.005;entryY=0.196;entryDx=0;entryDy=0;entryPerimeter=0;" parent="1" source="iY_i58WbuWCP7w-2UXdW-9" target="JWryAIk7dfxH5tfOtyPe-14" edge="1">
          <mxGeometry x="0.0022" width="160" relative="1" as="geometry">
            <mxPoint x="2320" y="450" as="sourcePoint" />
            <mxPoint x="2710" y="440" as="targetPoint" />
            <mxPoint as="offset" />
            <Array as="points" />
          </mxGeometry>
        </mxCell>
        <mxCell id="iY_i58WbuWCP7w-2UXdW-49" value="&lt;font style=&quot;font-size: 14px;&quot;&gt;Displays&lt;/font&gt;" style="endArrow=open;endSize=12;html=1;rounded=0;labelBackgroundColor=default;strokeColor=default;fontFamily=Helvetica;fontSize=14;fontColor=default;shape=connector;exitX=1;exitY=0.75;exitDx=0;exitDy=0;entryX=0.75;entryY=0;entryDx=0;entryDy=0;" parent="1" source="iY_i58WbuWCP7w-2UXdW-9" target="JWryAIk7dfxH5tfOtyPe-5" edge="1">
          <mxGeometry x="-0.4584" width="160" relative="1" as="geometry">
            <mxPoint x="2830" y="750" as="sourcePoint" />
            <mxPoint x="2700" y="910" as="targetPoint" />
            <mxPoint as="offset" />
            <Array as="points">
              <mxPoint x="2730" y="460" />
              <mxPoint x="2730" y="920" />
              <mxPoint x="2673" y="920" />
            </Array>
          </mxGeometry>
        </mxCell>
        <mxCell id="iY_i58WbuWCP7w-2UXdW-62" value="&lt;font style=&quot;font-size: 14px;&quot;&gt;Displays&lt;/font&gt;" style="endArrow=open;endSize=12;html=1;rounded=0;labelBackgroundColor=default;strokeColor=default;fontFamily=Helvetica;fontSize=14;fontColor=default;shape=connector;exitX=0.75;exitY=1;exitDx=0;exitDy=0;entryX=0;entryY=0.5;entryDx=0;entryDy=0;" parent="1" source="iY_i58WbuWCP7w-2UXdW-9" target="JWryAIk7dfxH5tfOtyPe-7" edge="1">
          <mxGeometry x="0.2547" width="160" relative="1" as="geometry">
            <mxPoint x="2890" y="820" as="sourcePoint" />
            <mxPoint x="3177" y="800" as="targetPoint" />
            <mxPoint as="offset" />
            <Array as="points">
              <mxPoint x="2270" y="530" />
            </Array>
          </mxGeometry>
        </mxCell>
        <mxCell id="iY_i58WbuWCP7w-2UXdW-65" value="&lt;font style=&quot;font-size: 14px;&quot;&gt;Displays&lt;/font&gt;" style="endArrow=open;endSize=12;html=1;rounded=0;labelBackgroundColor=default;strokeColor=default;fontFamily=Helvetica;fontSize=14;fontColor=default;shape=connector;exitX=0.5;exitY=1;exitDx=0;exitDy=0;entryX=0.25;entryY=0;entryDx=0;entryDy=0;" parent="1" source="iY_i58WbuWCP7w-2UXdW-9" target="JWryAIk7dfxH5tfOtyPe-4" edge="1">
          <mxGeometry x="0.0837" width="160" relative="1" as="geometry">
            <mxPoint x="2200" y="500" as="sourcePoint" />
            <mxPoint x="2275" y="590" as="targetPoint" />
            <mxPoint as="offset" />
            <Array as="points">
              <mxPoint x="2220" y="550" />
              <mxPoint x="2293" y="550" />
            </Array>
          </mxGeometry>
        </mxCell>
        <mxCell id="iY_i58WbuWCP7w-2UXdW-66" value="&lt;font style=&quot;font-size: 14px;&quot;&gt;Displays&lt;/font&gt;" style="endArrow=open;endSize=12;html=1;rounded=0;labelBackgroundColor=default;strokeColor=default;fontFamily=Helvetica;fontSize=14;fontColor=default;shape=connector;exitX=0.25;exitY=1;exitDx=0;exitDy=0;entryX=0.5;entryY=0;entryDx=0;entryDy=0;" parent="1" source="iY_i58WbuWCP7w-2UXdW-9" target="JWryAIk7dfxH5tfOtyPe-3" edge="1">
          <mxGeometry x="0.0909" width="160" relative="1" as="geometry">
            <mxPoint x="2225" y="490" as="sourcePoint" />
            <mxPoint x="2285" y="600" as="targetPoint" />
            <mxPoint as="offset" />
            <Array as="points">
              <mxPoint x="2170" y="550" />
              <mxPoint x="2085" y="550" />
            </Array>
          </mxGeometry>
        </mxCell>
        <mxCell id="iY_i58WbuWCP7w-2UXdW-67" value="&lt;font style=&quot;font-size: 14px;&quot;&gt;Displays&lt;/font&gt;" style="endArrow=open;endSize=12;html=1;rounded=0;labelBackgroundColor=default;strokeColor=default;fontFamily=Helvetica;fontSize=14;fontColor=default;shape=connector;exitX=0;exitY=0.75;exitDx=0;exitDy=0;entryX=0.5;entryY=0;entryDx=0;entryDy=0;" parent="1" source="iY_i58WbuWCP7w-2UXdW-9" target="JWryAIk7dfxH5tfOtyPe-10" edge="1">
          <mxGeometry x="-0.068" width="160" relative="1" as="geometry">
            <mxPoint x="2096" y="470" as="sourcePoint" />
            <mxPoint x="2000" y="580" as="targetPoint" />
            <mxPoint as="offset" />
            <Array as="points">
              <mxPoint x="2090" y="460" />
              <mxPoint x="1950" y="460" />
            </Array>
          </mxGeometry>
        </mxCell>
        <mxCell id="iY_i58WbuWCP7w-2UXdW-68" value="&lt;font style=&quot;font-size: 14px;&quot;&gt;Displays&lt;/font&gt;" style="endArrow=open;endSize=12;html=1;rounded=0;labelBackgroundColor=default;strokeColor=default;fontFamily=Helvetica;fontSize=14;fontColor=default;shape=connector;exitX=0;exitY=0;exitDx=0;exitDy=0;entryX=1;entryY=0.5;entryDx=0;entryDy=0;" parent="1" source="iY_i58WbuWCP7w-2UXdW-9" target="JWryAIk7dfxH5tfOtyPe-13" edge="1">
          <mxGeometry x="-0.434" width="160" relative="1" as="geometry">
            <mxPoint x="2186" y="500" as="sourcePoint" />
            <mxPoint x="2090" y="610" as="targetPoint" />
            <mxPoint as="offset" />
            <Array as="points">
              <mxPoint x="2060" y="400" />
              <mxPoint x="2060" y="370" />
            </Array>
          </mxGeometry>
        </mxCell>
        <mxCell id="iY_i58WbuWCP7w-2UXdW-69" value="&lt;font style=&quot;font-size: 14px;&quot;&gt;Displays&lt;/font&gt;" style="endArrow=open;endSize=12;html=1;rounded=0;labelBackgroundColor=default;strokeColor=default;fontFamily=Helvetica;fontSize=14;fontColor=default;shape=connector;exitX=0;exitY=0.25;exitDx=0;exitDy=0;" parent="1" source="iY_i58WbuWCP7w-2UXdW-9" edge="1">
          <mxGeometry x="-0.0382" width="160" relative="1" as="geometry">
            <mxPoint x="2128" y="410" as="sourcePoint" />
            <mxPoint x="1800" y="420" as="targetPoint" />
            <mxPoint as="offset" />
            <Array as="points">
              <mxPoint x="2070" y="420" />
              <mxPoint x="1970" y="420" />
            </Array>
          </mxGeometry>
        </mxCell>
        <mxCell id="iY_i58WbuWCP7w-2UXdW-70" value="&lt;font style=&quot;font-size: 14px;&quot;&gt;Displays&lt;/font&gt;" style="endArrow=open;endSize=12;html=1;rounded=0;labelBackgroundColor=default;strokeColor=default;fontFamily=Helvetica;fontSize=14;fontColor=default;shape=connector;entryX=0.5;entryY=1;entryDx=0;entryDy=0;exitX=0.5;exitY=0;exitDx=0;exitDy=0;" parent="1" source="iY_i58WbuWCP7w-2UXdW-9" target="iY_i58WbuWCP7w-2UXdW-2" edge="1">
          <mxGeometry x="-0.0435" width="160" relative="1" as="geometry">
            <mxPoint x="2240" y="380" as="sourcePoint" />
            <mxPoint x="2040" y="385" as="targetPoint" />
            <mxPoint x="1" as="offset" />
            <Array as="points">
              <mxPoint x="2220" y="380" />
              <mxPoint x="2290" y="380" />
            </Array>
          </mxGeometry>
        </mxCell>
        <mxCell id="iY_i58WbuWCP7w-2UXdW-72" value="&lt;font style=&quot;font-size: 14px;&quot;&gt;Displays&lt;/font&gt;" style="endArrow=open;endSize=12;html=1;rounded=0;labelBackgroundColor=default;strokeColor=default;fontFamily=Helvetica;fontSize=14;fontColor=default;shape=connector;entryX=0.25;entryY=0;entryDx=0;entryDy=0;exitX=0.5;exitY=1;exitDx=0;exitDy=0;" parent="1" source="iY_i58WbuWCP7w-2UXdW-38" target="iY_i58WbuWCP7w-2UXdW-9" edge="1">
          <mxGeometry x="-0.0435" width="160" relative="1" as="geometry">
            <mxPoint x="2105" y="390" as="sourcePoint" />
            <mxPoint x="2180" y="350" as="targetPoint" />
            <mxPoint x="1" as="offset" />
            <Array as="points">
              <mxPoint x="2105" y="370" />
              <mxPoint x="2170" y="370" />
            </Array>
          </mxGeometry>
        </mxCell>
        <mxCell id="iY_i58WbuWCP7w-2UXdW-74" value="&lt;font style=&quot;font-size: 14px;&quot;&gt;Displays&lt;/font&gt;" style="endArrow=open;endSize=12;html=1;rounded=0;labelBackgroundColor=default;strokeColor=default;fontFamily=Helvetica;fontSize=14;fontColor=default;shape=connector;exitX=0;exitY=0.5;exitDx=0;exitDy=0;entryX=0.5;entryY=0;entryDx=0;entryDy=0;" parent="1" source="iY_i58WbuWCP7w-2UXdW-9" target="JWryAIk7dfxH5tfOtyPe-1" edge="1">
          <mxGeometry x="-0.0382" width="160" relative="1" as="geometry">
            <mxPoint x="2108" y="439.29" as="sourcePoint" />
            <mxPoint x="1780" y="439.29" as="targetPoint" />
            <mxPoint as="offset" />
            <Array as="points">
              <mxPoint x="2060" y="440" />
              <mxPoint x="1815" y="440" />
            </Array>
          </mxGeometry>
        </mxCell>
        <mxCell id="iY_i58WbuWCP7w-2UXdW-76" value="&lt;font style=&quot;font-size: 14px;&quot;&gt;Depends&lt;/font&gt;" style="endArrow=open;endSize=12;dashed=1;html=1;rounded=0;labelBackgroundColor=default;strokeColor=default;fontFamily=Helvetica;fontSize=14;fontColor=default;shape=connector;exitX=0.364;exitY=-0.002;exitDx=0;exitDy=0;exitPerimeter=0;" parent="1" source="JWryAIk7dfxH5tfOtyPe-3" edge="1">
          <mxGeometry x="-0.0848" width="160" relative="1" as="geometry">
            <mxPoint x="1880" y="600" as="sourcePoint" />
            <mxPoint x="1960" y="560" as="targetPoint" />
            <mxPoint as="offset" />
            <Array as="points">
              <mxPoint x="2051" y="580" />
              <mxPoint x="1960" y="580" />
            </Array>
          </mxGeometry>
        </mxCell>
        <mxCell id="iY_i58WbuWCP7w-2UXdW-77" value="&lt;font style=&quot;font-size: 14px;&quot;&gt;Depends&lt;/font&gt;" style="endArrow=open;endSize=12;dashed=1;html=1;rounded=0;labelBackgroundColor=default;strokeColor=default;fontFamily=Helvetica;fontSize=14;fontColor=default;shape=connector;exitX=0.25;exitY=1;exitDx=0;exitDy=0;" parent="1" source="iY_i58WbuWCP7w-2UXdW-4" edge="1">
          <mxGeometry x="-0.4275" width="160" relative="1" as="geometry">
            <mxPoint x="2830" y="820" as="sourcePoint" />
            <mxPoint x="2480" y="938" as="targetPoint" />
            <mxPoint as="offset" />
            <Array as="points">
              <mxPoint x="2545" y="938" />
            </Array>
          </mxGeometry>
        </mxCell>
        <mxCell id="iY_i58WbuWCP7w-2UXdW-79" value="&lt;font style=&quot;font-size: 14px;&quot;&gt;Depends&lt;/font&gt;" style="endArrow=open;endSize=12;dashed=1;html=1;rounded=0;labelBackgroundColor=default;strokeColor=default;fontFamily=Helvetica;fontSize=14;fontColor=default;shape=connector;exitX=0.5;exitY=0;exitDx=0;exitDy=0;entryX=0.566;entryY=1.007;entryDx=0;entryDy=0;entryPerimeter=0;" parent="1" source="JWryAIk7dfxH5tfOtyPe-5" target="iY_i58WbuWCP7w-2UXdW-4" edge="1">
          <mxGeometry x="-0.1439" width="160" relative="1" as="geometry">
            <mxPoint x="2553" y="850" as="sourcePoint" />
            <mxPoint x="2453" y="870" as="targetPoint" />
            <mxPoint as="offset" />
            <Array as="points" />
          </mxGeometry>
        </mxCell>
        <mxCell id="iY_i58WbuWCP7w-2UXdW-80" value="" style="endArrow=block;dashed=1;endFill=0;endSize=12;html=1;rounded=0;labelBackgroundColor=default;strokeColor=default;fontFamily=Helvetica;fontSize=14;fontColor=default;shape=connector;exitX=0.68;exitY=1.002;exitDx=0;exitDy=0;entryX=0.173;entryY=-0.004;entryDx=0;entryDy=0;entryPerimeter=0;exitPerimeter=0;" parent="1" source="iY_i58WbuWCP7w-2UXdW-7" target="JWryAIk7dfxH5tfOtyPe-1" edge="1">
          <mxGeometry width="160" relative="1" as="geometry">
            <mxPoint x="1420" y="550" as="sourcePoint" />
            <mxPoint x="1420" y="685" as="targetPoint" />
            <Array as="points" />
          </mxGeometry>
        </mxCell>
        <mxCell id="iY_i58WbuWCP7w-2UXdW-81" value="Implements" style="edgeLabel;html=1;align=center;verticalAlign=middle;resizable=0;points=[];fontSize=14;fontFamily=Helvetica;fontColor=default;rounded=0;" parent="iY_i58WbuWCP7w-2UXdW-80" vertex="1" connectable="0">
          <mxGeometry relative="1" as="geometry">
            <mxPoint x="-2" y="-9" as="offset" />
          </mxGeometry>
        </mxCell>
        <mxCell id="iY_i58WbuWCP7w-2UXdW-82" value="" style="endArrow=block;dashed=1;endFill=0;endSize=12;html=1;rounded=0;labelBackgroundColor=default;strokeColor=default;fontFamily=Helvetica;fontSize=14;fontColor=default;shape=connector;entryX=-0.003;entryY=0.949;entryDx=0;entryDy=0;entryPerimeter=0;exitX=0.25;exitY=1;exitDx=0;exitDy=0;" parent="1" source="iY_i58WbuWCP7w-2UXdW-7" target="JWryAIk7dfxH5tfOtyPe-3" edge="1">
          <mxGeometry width="160" relative="1" as="geometry">
            <mxPoint x="1640" y="560" as="sourcePoint" />
            <mxPoint x="1640" y="1460" as="targetPoint" />
            <Array as="points">
              <mxPoint x="1643" y="1341" />
            </Array>
          </mxGeometry>
        </mxCell>
        <mxCell id="iY_i58WbuWCP7w-2UXdW-83" value="Implements" style="edgeLabel;html=1;align=center;verticalAlign=middle;resizable=0;points=[];fontSize=14;fontFamily=Helvetica;fontColor=default;rounded=0;" parent="iY_i58WbuWCP7w-2UXdW-82" vertex="1" connectable="0">
          <mxGeometry relative="1" as="geometry">
            <mxPoint x="-2" y="3" as="offset" />
          </mxGeometry>
        </mxCell>
        <mxCell id="iY_i58WbuWCP7w-2UXdW-84" value="&lt;font style=&quot;font-size: 14px;&quot;&gt;Stores&lt;/font&gt;" style="endArrow=open;endSize=12;html=1;rounded=0;labelBackgroundColor=default;strokeColor=default;fontFamily=Helvetica;fontSize=14;fontColor=default;shape=connector;exitX=0.75;exitY=1;exitDx=0;exitDy=0;entryX=0.5;entryY=1;entryDx=0;entryDy=0;" parent="1" source="JWryAIk7dfxH5tfOtyPe-14" target="JWryAIk7dfxH5tfOtyPe-1" edge="1">
          <mxGeometry x="-0.6358" width="160" relative="1" as="geometry">
            <mxPoint x="3445" y="1010" as="sourcePoint" />
            <mxPoint x="1670" y="1570" as="targetPoint" />
            <mxPoint as="offset" />
            <Array as="points">
              <mxPoint x="2975" y="1430" />
              <mxPoint x="1815" y="1430" />
            </Array>
          </mxGeometry>
        </mxCell>
        <mxCell id="iY_i58WbuWCP7w-2UXdW-87" value="&lt;font style=&quot;font-size: 14px;&quot;&gt;Stores&lt;/font&gt;" style="endArrow=open;endSize=12;html=1;rounded=0;labelBackgroundColor=default;strokeColor=default;fontFamily=Helvetica;fontSize=14;fontColor=default;shape=connector;entryX=0.5;entryY=1;entryDx=0;entryDy=0;" parent="1" target="JWryAIk7dfxH5tfOtyPe-3" edge="1">
          <mxGeometry x="-0.6358" width="160" relative="1" as="geometry">
            <mxPoint x="2810" y="760" as="sourcePoint" />
            <mxPoint x="1763" y="1340" as="targetPoint" />
            <mxPoint as="offset" />
            <Array as="points">
              <mxPoint x="2810" y="1410" />
              <mxPoint x="2085" y="1410" />
            </Array>
          </mxGeometry>
        </mxCell>
        <mxCell id="__5o4coh9Xc5UoqHaCYT-1" value="&lt;font style=&quot;font-size: 14px;&quot;&gt;Depends&lt;/font&gt;" style="endArrow=open;endSize=12;dashed=1;html=1;rounded=0;labelBackgroundColor=default;strokeColor=default;fontFamily=Helvetica;fontSize=14;fontColor=default;shape=connector;exitX=0.667;exitY=-0.001;exitDx=0;exitDy=0;exitPerimeter=0;" parent="1" source="JWryAIk7dfxH5tfOtyPe-1" edge="1">
          <mxGeometry x="-0.0784" width="160" relative="1" as="geometry">
            <mxPoint x="1420" y="970" as="sourcePoint" />
            <mxPoint x="1931" y="560" as="targetPoint" />
            <mxPoint x="1" as="offset" />
            <Array as="points">
              <mxPoint x="1857" y="580" />
              <mxPoint x="1931" y="580" />
            </Array>
          </mxGeometry>
        </mxCell>
        <mxCell id="__5o4coh9Xc5UoqHaCYT-2" value="&lt;font style=&quot;font-size: 14px;&quot;&gt;Displays&lt;/font&gt;" style="endArrow=open;endSize=12;html=1;rounded=0;labelBackgroundColor=default;strokeColor=default;fontFamily=Helvetica;fontSize=14;fontColor=default;shape=connector;exitX=1;exitY=1;exitDx=0;exitDy=0;entryX=0.75;entryY=0;entryDx=0;entryDy=0;" parent="1" source="iY_i58WbuWCP7w-2UXdW-9" target="iY_i58WbuWCP7w-2UXdW-4" edge="1">
          <mxGeometry x="0.6044" width="160" relative="1" as="geometry">
            <mxPoint x="2280" y="490" as="sourcePoint" />
            <mxPoint x="2400" y="540" as="targetPoint" />
            <mxPoint y="-1" as="offset" />
            <Array as="points">
              <mxPoint x="2655" y="480" />
            </Array>
          </mxGeometry>
        </mxCell>
        <mxCell id="__5o4coh9Xc5UoqHaCYT-5" value="&lt;font style=&quot;font-size: 14px;&quot;&gt;Depends&lt;/font&gt;" style="endArrow=open;endSize=12;dashed=1;html=1;rounded=0;labelBackgroundColor=default;strokeColor=default;fontFamily=Helvetica;fontSize=14;fontColor=default;shape=connector;exitX=0.5;exitY=0;exitDx=0;exitDy=0;entryX=0.25;entryY=1;entryDx=0;entryDy=0;" parent="1" source="JWryAIk7dfxH5tfOtyPe-4" target="JWryAIk7dfxH5tfOtyPe-7" edge="1">
          <mxGeometry x="-0.0784" width="160" relative="1" as="geometry">
            <mxPoint x="1477" y="649" as="sourcePoint" />
            <mxPoint x="1551" y="600" as="targetPoint" />
            <mxPoint x="1" as="offset" />
            <Array as="points">
              <mxPoint x="2355" y="590" />
              <mxPoint x="2465" y="590" />
            </Array>
          </mxGeometry>
        </mxCell>
        <mxCell id="__5o4coh9Xc5UoqHaCYT-6" value="&lt;font style=&quot;font-size: 14px;&quot;&gt;Depends&lt;/font&gt;" style="endArrow=open;endSize=12;dashed=1;html=1;rounded=0;labelBackgroundColor=default;strokeColor=default;fontFamily=Helvetica;fontSize=14;fontColor=default;shape=connector;exitX=0.5;exitY=0;exitDx=0;exitDy=0;entryX=0.5;entryY=1;entryDx=0;entryDy=0;" parent="1" source="iY_i58WbuWCP7w-2UXdW-4" target="JWryAIk7dfxH5tfOtyPe-7" edge="1">
          <mxGeometry x="-0.0769" width="160" relative="1" as="geometry">
            <mxPoint x="3320" y="620" as="sourcePoint" />
            <mxPoint x="3430" y="580" as="targetPoint" />
            <mxPoint as="offset" />
            <Array as="points">
              <mxPoint x="2600" y="590" />
              <mxPoint x="2510" y="590" />
            </Array>
          </mxGeometry>
        </mxCell>
      </root>
    </mxGraphModel>
  </diagram>
</mxfile>
